<svg xmlns="http://www.w3.org/2000/svg" viewBox="0 0 32 32" id="Flag-Spain--Streamline-Twemoji" height="32" width="32">
  <desc>
    Flag Spain Streamline Emoji: https://streamlinehq.com
  </desc>
  <path fill="#c60a1d" d="M32 24c0 1.9635555555555555 -1.5919999999999999 3.5555555555555554 -3.5555555555555554 3.5555555555555554H3.5555555555555554c-1.9635555555555555 0 -3.5555555555555554 -1.5919999999999999 -3.5555555555555554 -3.5555555555555554V8c0 -1.9635555555555555 1.5919999999999999 -3.5555555555555554 3.5555555555555554 -3.5555555555555554h24.888888888888886c1.9635555555555555 0 3.5555555555555554 1.5919999999999999 3.5555555555555554 3.5555555555555554v16z" stroke-width="0.8889"></path>
  <path fill="#ffc400" d="M0 10.666666666666666h32v10.666666666666666H0z" stroke-width="0.8889"></path>
  <path fill="#ea596e" d="M8 15.11111111111111v2.6666666666666665c0 1.472888888888889 1.1937777777777776 2.6666666666666665 2.6666666666666665 2.6666666666666665s2.6666666666666665 -1.1937777777777776 2.6666666666666665 -2.6666666666666665v-2.6666666666666665H8z" stroke-width="0.8889"></path>
  <path fill="#f4a2b2" d="M10.666666666666666 14.222222222222221h2.6666666666666665v2.6666666666666665h-2.6666666666666665z" stroke-width="0.8889"></path>
  <path fill="#dd2e44" d="M8 14.222222222222221h2.6666666666666665v2.6666666666666665H8z" stroke-width="0.8889"></path>
  <path fill="#ea596e" d="M8 12.888888888888888a2.6666666666666665 1.3333333333333333 0 1 0 5.333333333333333 0 2.6666666666666665 1.3333333333333333 0 1 0 -5.333333333333333 0" stroke-width="0.8889"></path>
  <path fill="#ffac33" d="M8 12.222222222222221a2.6666666666666665 0.6666666666666666 0 1 0 5.333333333333333 0 2.6666666666666665 0.6666666666666666 0 1 0 -5.333333333333333 0" stroke-width="0.8889"></path>
  <path fill="#99aab5" d="M6.222222222222221 14.222222222222221h0.8888888888888888v6.222222222222221H6.222222222222221zm8 0h0.8888888888888888v6.222222222222221h-0.8888888888888888z" stroke-width="0.8889"></path>
  <path fill="#66757f" d="M5.333333333333333 19.555555555555554h2.6666666666666665v0.8888888888888888H5.333333333333333zm8 0h2.6666666666666665v0.8888888888888888h-2.6666666666666665zm-7.111111111111111 -6.222222222222221h0.8888888888888888v0.8888888888888888H6.222222222222221zm8 0h0.8888888888888888v0.8888888888888888h-0.8888888888888888z" stroke-width="0.8889"></path>
</svg>