<svg xmlns="http://www.w3.org/2000/svg" viewBox="0 0 32 32" id="Flag-United-Kingdom--Streamline-Twemoji" height="32" width="32">
  <desc>
    Flag United Kingdom Streamline Emoji: https://streamlinehq.com
  </desc>
  <path fill="#00247d" d="M0 8.052444444444443V11.555555555555555h5.002666666666666zM4.145777777777777 27.555555555555554H11.555555555555555v-5.1884444444444435zM20.444444444444443 22.368V27.555555555555554h7.408888888888889zM0 20.444444444444443v3.5031111111111106L5.004444444444444 20.444444444444443zM27.85511111111111 4.444444444444445H20.444444444444443v5.1884444444444435zM32 23.948444444444444V20.444444444444443h-5.005333333333334zM32 11.555555555555555V8.052444444444443L26.996444444444442 11.555555555555555zM11.555555555555555 4.444444444444445H4.145777777777777L11.555555555555555 9.632888888888887z" stroke-width="0.8889"></path>
  <path fill="#cf1b2b" d="m22.346666666666668 20.444444444444443 8.632888888888889 6.045333333333333c0.41866666666666663 -0.42577777777777776 0.7182222222222222 -0.9617777777777778 0.8799999999999999 -1.5546666666666666L25.446222222222218 20.444444444444443H22.346666666666668zM11.555555555555555 20.444444444444443h-1.903111111111111l-8.632 6.044444444444444c0.4631111111111111 0.4711111111111111 1.056888888888889 0.8079999999999999 1.7226666666666666 0.9644444444444443L11.555555555555555 21.282666666666668V20.444444444444443zm8.88888888888889 -8.88888888888889h1.903111111111111l8.632 -6.044444444444444c-0.4631111111111111 -0.4711111111111111 -1.0559999999999998 -0.8079999999999999 -1.7217777777777776 -0.9644444444444443L20.444444444444443 10.717333333333332V11.555555555555555zm-10.792 0L1.0204444444444443 5.511111111111111C0.6017777777777777 5.937777777777777 0.3022222222222222 6.472888888888889 0.13955555555555554 7.065777777777777L6.552888888888888 11.555555555555555h3.0995555555555554z" stroke-width="0.8889"></path>
  <path fill="#eeeeee" d="M32 18.666666666666664H18.666666666666664v8.88888888888889h1.7777777777777777v-5.187555555555556L27.85333333333333 27.555555555555554H28.444444444444443c0.9928888888888888 0 1.8897777777777776 -0.4097777777777778 2.5351111111111106 -1.0657777777777777L22.346666666666668 20.444444444444443h3.0995555555555554l6.413333333333333 4.490666666666666c0.08266666666666667 -0.2995555555555556 0.14044444444444443 -0.6097777777777778 0.14044444444444443 -0.9351111111111111v-0.051555555555555556L26.994666666666664 20.444444444444443H32v-1.7777777777777777zM0 18.666666666666664v1.7777777777777777h5.004444444444444L0 23.947555555555553V24c0 0.9697777777777777 0.3902222222222222 1.847111111111111 1.0204444444444443 2.4888888888888885l8.632 -6.044444444444444H11.555555555555555v0.8382222222222221l-8.812444444444443 6.169777777777777c0.2613333333333333 0.06222222222222223 0.5315555555555556 0.10311111111111111 0.8124444444444444 0.10311111111111111h0.5902222222222222L11.555555555555555 22.36711111111111V27.555555555555554h1.7777777777777777V18.666666666666664H0zM32 8c0 -0.9697777777777777 -0.3902222222222222 -1.847111111111111 -1.0204444444444443 -2.4888888888888885L22.34755555555555 11.555555555555555H20.444444444444443v-0.8382222222222221l8.813333333333333 -6.1706666666666665C28.99555555555555 4.485333333333333 28.725333333333335 4.444444444444445 28.444444444444443 4.444444444444445h-0.5893333333333334L20.444444444444443 9.632888888888887V4.444444444444445h-1.7777777777777777v8.88888888888889h13.333333333333332v-1.7777777777777777h-5.003555555555555L32 8.052444444444443V8zM11.555555555555555 4.444444444444445v5.1884444444444435L4.145777777777777 4.444444444444445H3.5555555555555554c-0.9937777777777779 0 -1.8897777777777776 0.4097777777777778 -2.5351111111111106 1.0666666666666667l8.632 6.044444444444444H6.552888888888888L0.13955555555555554 7.065777777777777C0.057777777777777775 7.365333333333332 0 7.674666666666667 0 8v0.05244444444444444L5.002666666666666 11.555555555555555H0v1.7777777777777777h13.333333333333332V4.444444444444445h-1.7777777777777777z" stroke-width="0.8889"></path>
  <path fill="#cf1b2b" d="M18.666666666666664 13.333333333333332V4.444444444444445h-5.333333333333333v8.88888888888889H0v5.333333333333333h13.333333333333332v8.88888888888889h5.333333333333333V18.666666666666664h13.333333333333332v-5.333333333333333z" stroke-width="0.8889"></path>
</svg>